<?xml version="1.0" encoding="UTF-8"?>
<!DOCTYPE svg PUBLIC "-//W3C//DTD SVG 1.1//EN" "http://www.w3.org/Graphics/SVG/1.1/DTD/svg11.dtd">
<svg xmlns="http://www.w3.org/2000/svg" version="1.1" width="5130px" height="1676px" style="shape-rendering:geometricPrecision; text-rendering:geometricPrecision; image-rendering:optimizeQuality; fill-rule:evenodd; clip-rule:evenodd" xmlns:xlink="http://www.w3.org/1999/xlink">
<g><path style="opacity:0.999" fill="#ef6f53" d="M 787.5,1675.5 C 762.167,1675.5 736.833,1675.5 711.5,1675.5C 489.86,1660.1 308.027,1567.77 166,1398.5C 64.8043,1271.8 9.3043,1127.13 -0.5,964.5C -0.5,939.167 -0.5,913.833 -0.5,888.5C 13.3979,685.232 94.0646,514.065 241.5,375C 398.595,234.955 582.928,169.622 794.5,179C 1015.85,195.914 1196.68,289.414 1337,459.5C 1466.21,626.216 1518.54,814.882 1494,1025.5C 1466.01,1217.36 1378.85,1375.86 1232.5,1501C 1103.52,1607.29 955.186,1665.46 787.5,1675.5 Z"/></g>
<g><path style="opacity:1" fill="#fefefe" d="M 744.5,480.5 C 747.098,482.304 749.265,484.638 751,487.5C 796.918,557.671 843.085,627.671 889.5,697.5C 960.167,650.5 1030.83,603.5 1101.5,556.5C 1101.83,557.833 1102.17,559.167 1102.5,560.5C 1083.67,752.807 1065.17,945.14 1047,1137.5C 1035.1,1210.95 1006.1,1276.62 960,1334.5C 893.134,1409.81 809.301,1441.64 708.5,1430C 638.812,1421.08 580.979,1390.24 535,1337.5C 486.053,1277.4 456.053,1208.73 445,1131.5C 426.558,941.196 408.391,750.863 390.5,560.5C 390.833,559.167 391.167,557.833 391.5,556.5C 461.597,603.297 531.764,649.963 602,696.5C 650.114,624.889 697.614,552.889 744.5,480.5 Z"/></g>
<g><path style="opacity:1" fill="#ef6f53" d="M 744.5,612.5 C 745.496,612.414 746.329,612.748 747,613.5C 774.363,654.698 801.53,696.031 828.5,737.5C 801.167,755.833 773.833,774.167 746.5,792.5C 718.278,774.563 690.611,755.897 663.5,736.5C 690.552,695.131 717.552,653.798 744.5,612.5 Z"/></g>
<g><path style="opacity:1" fill="#ef6f53" d="M 1014.5,701.5 C 1015.59,701.62 1016.25,702.287 1016.5,703.5C 1007.12,797.806 997.957,892.139 989,986.5C 967.38,950.211 938.88,920.378 903.5,897C 873.167,876.833 842.833,856.667 812.5,836.5C 879.899,791.477 947.232,746.477 1014.5,701.5 Z"/></g>
<g><path style="opacity:1" fill="#ef6f53" d="M 476.5,701.5 C 544.444,746.115 612.11,791.115 679.5,836.5C 647.969,857.863 616.303,879.029 584.5,900C 551.394,923.102 524.561,951.935 504,986.5C 494.562,891.514 485.395,796.514 476.5,701.5 Z"/></g>
<g><path style="opacity:0.985" fill="#285a84" d="M 1843.5,733.5 C 1880.37,729.754 1915.37,735.921 1948.5,752C 1952.96,752.867 1957.29,752.534 1961.5,751C 1964.71,748.068 1967.05,744.568 1968.5,740.5C 1973.46,739.506 1978.46,739.173 1983.5,739.5C 1985.46,773.818 1987.13,808.151 1988.5,842.5C 1983.57,842.803 1978.74,842.469 1974,841.5C 1967.59,811.84 1952.42,787.673 1928.5,769C 1898.46,753.547 1867.46,751.547 1835.5,763C 1817.56,771.599 1803.4,784.433 1793,801.5C 1780.16,823.688 1772.16,847.688 1769,873.5C 1763.87,912.871 1765.87,951.871 1775,990.5C 1795.84,1068.55 1845.01,1095.05 1922.5,1070C 1928.07,1067.43 1933.4,1064.43 1938.5,1061C 1955.83,1044.65 1968.83,1025.32 1977.5,1003C 1981.27,1003.71 1984.94,1005.04 1988.5,1007C 1991.64,1008.61 1992.81,1011.11 1992,1014.5C 1982.13,1047.7 1961.96,1072.54 1931.5,1089C 1902.38,1101.53 1872.04,1105.53 1840.5,1101C 1765.92,1094.65 1718.75,1055.49 1699,983.5C 1687.81,931.261 1690.81,879.927 1708,829.5C 1727.38,783.461 1761.22,753.628 1809.5,740C 1820.91,737.5 1832.24,735.333 1843.5,733.5 Z"/></g>
<g><path style="opacity:0.988" fill="#285a84" d="M 2574.5,733.5 C 2607.91,730.599 2640.58,734.099 2672.5,744C 2693.68,752.188 2711.85,764.688 2727,781.5C 2756.09,821.454 2769.59,866.454 2767.5,916.5C 2768.91,961.397 2758.41,1003.06 2736,1041.5C 2711.6,1074.29 2679.1,1093.62 2638.5,1099.5C 2639.25,1119.35 2646.58,1136.18 2660.5,1150C 2670.99,1156.17 2682.32,1158.17 2694.5,1156C 2703.17,1154.49 2711.17,1151.33 2718.5,1146.5C 2721.34,1150.17 2723.67,1154.17 2725.5,1158.5C 2699.17,1185.32 2667.51,1194.15 2630.5,1185C 2591.04,1170.33 2569.71,1141.83 2566.5,1099.5C 2511.39,1093.53 2472.89,1065.2 2451,1014.5C 2430.75,958.062 2428.08,900.728 2443,842.5C 2451.12,815.72 2464.62,792.22 2483.5,772C 2509.61,749.378 2539.94,736.545 2574.5,733.5 Z M 2588.5,756.5 C 2627.63,753.339 2656.13,769.005 2674,803.5C 2685.52,830.572 2691.85,858.905 2693,888.5C 2695.59,925.155 2693.26,961.488 2686,997.5C 2680.63,1022.08 2669.13,1043.24 2651.5,1061C 2626.45,1079.42 2599.11,1083.42 2569.5,1073C 2548.13,1062.29 2532.97,1045.79 2524,1023.5C 2514.2,997.508 2508.87,970.508 2508,942.5C 2505.76,906.434 2508.42,870.767 2516,835.5C 2521.64,810.373 2533.8,789.207 2552.5,772C 2563.41,764.2 2575.41,759.033 2588.5,756.5 Z"/></g>
<g><path style="opacity:0.99" fill="#285a83" d="M 2035.5,739.5 C 2084.83,739.5 2134.17,739.5 2183.5,739.5C 2183.83,745.868 2183.5,752.202 2182.5,758.5C 2174.55,759.303 2166.55,759.803 2158.5,760C 2151.93,761.249 2147.1,764.749 2144,770.5C 2142.54,812.806 2142.04,855.14 2142.5,897.5C 2191.83,897.5 2241.17,897.5 2290.5,897.5C 2290.67,857.499 2290.5,817.499 2290,777.5C 2289.01,767.505 2283.51,761.672 2273.5,760C 2265.78,759.801 2258.12,759.301 2250.5,758.5C 2249.5,752.202 2249.17,745.868 2249.5,739.5C 2298.83,739.5 2348.17,739.5 2397.5,739.5C 2397.81,746.09 2397.48,752.59 2396.5,759C 2388.83,759.333 2381.17,759.667 2373.5,760C 2367.21,761.054 2362.38,764.221 2359,769.5C 2358.11,774.47 2357.45,779.47 2357,784.5C 2356.33,873.5 2356.33,962.5 2357,1051.5C 2357.5,1056.19 2358.17,1060.86 2359,1065.5C 2360.45,1068.62 2362.62,1071.12 2365.5,1073C 2375.67,1075.56 2386,1076.9 2396.5,1077C 2397.48,1083.41 2397.81,1089.91 2397.5,1096.5C 2348.17,1096.5 2298.83,1096.5 2249.5,1096.5C 2249.5,1090.17 2249.5,1083.83 2249.5,1077.5C 2260.35,1077.29 2271.02,1075.79 2281.5,1073C 2283.76,1071.29 2285.93,1069.45 2288,1067.5C 2288.79,1064.53 2289.46,1061.53 2290,1058.5C 2290.5,1012.83 2290.67,967.168 2290.5,921.5C 2241.17,921.5 2191.83,921.5 2142.5,921.5C 2142.04,969.193 2142.54,1016.86 2144,1064.5C 2145.32,1068.4 2147.82,1071.23 2151.5,1073C 2161.7,1075.53 2172.04,1077.03 2182.5,1077.5C 2183.5,1083.8 2183.83,1090.13 2183.5,1096.5C 2134.17,1096.5 2084.83,1096.5 2035.5,1096.5C 2035.5,1090.17 2035.5,1083.83 2035.5,1077.5C 2046.01,1077.24 2056.35,1075.74 2066.5,1073C 2070.39,1070.78 2073.22,1067.61 2075,1063.5C 2076.16,1015.04 2076.66,966.544 2076.5,918C 2076.33,870.833 2076.17,823.667 2076,776.5C 2074.41,766.582 2068.58,761.082 2058.5,760C 2051.17,759.667 2043.83,759.333 2036.5,759C 2035.52,752.59 2035.19,746.09 2035.5,739.5 Z"/></g>
<g><path style="opacity:0.985" fill="#285a84" d="M 3584.5,757.5 C 3592.5,757.5 3600.5,757.5 3608.5,757.5C 3608.5,785.5 3608.5,813.5 3608.5,841.5C 3627.5,841.5 3646.5,841.5 3665.5,841.5C 3665.5,849.167 3665.5,856.833 3665.5,864.5C 3646.5,864.5 3627.5,864.5 3608.5,864.5C 3608.33,918.501 3608.5,972.501 3609,1026.5C 3609.33,1039.98 3614.16,1051.48 3623.5,1061C 3630.53,1064.48 3638.03,1066.31 3646,1066.5C 3654.74,1065.68 3663.24,1064.18 3671.5,1062C 3673.72,1066.05 3675.72,1070.22 3677.5,1074.5C 3664.5,1085.26 3649.83,1093.42 3633.5,1099C 3614.51,1103.13 3595.84,1102.13 3577.5,1096C 3558.96,1085.75 3548.8,1069.92 3547,1048.5C 3546.5,987.168 3546.33,925.834 3546.5,864.5C 3536.17,864.5 3525.83,864.5 3515.5,864.5C 3515.33,858.158 3515.5,851.825 3516,845.5C 3541.63,836.536 3560.29,819.869 3572,795.5C 3577.43,783.368 3581.6,770.701 3584.5,757.5 Z"/></g>
<g><path style="opacity:0.986" fill="#285a84" d="M 2962.5,836.5 C 2989.49,833.277 3012.66,840.943 3032,859.5C 3034,862.167 3036,864.833 3038,867.5C 3039.59,870.352 3040.92,873.352 3042,876.5C 3073.85,844.186 3112.35,831.686 3157.5,839C 3183.96,849.029 3199.13,868.195 3203,896.5C 3203.03,951.525 3203.7,1006.52 3205,1061.5C 3205.14,1066.91 3207.64,1070.75 3212.5,1073C 3220.84,1075.65 3229.34,1077.15 3238,1077.5C 3238.5,1083.82 3238.67,1090.16 3238.5,1096.5C 3196.5,1096.5 3154.5,1096.5 3112.5,1096.5C 3112.5,1090.17 3112.5,1083.83 3112.5,1077.5C 3121.16,1077.57 3129.49,1076.07 3137.5,1073C 3139.67,1069.83 3141.17,1066.33 3142,1062.5C 3142.97,1011.47 3142.64,960.468 3141,909.5C 3136.56,885.735 3122.23,873.402 3098,872.5C 3076.18,873.903 3059.18,883.57 3047,901.5C 3046.33,953.5 3046.33,1005.5 3047,1057.5C 3046.98,1069.15 3052.82,1075.32 3064.5,1076C 3068.42,1076.2 3072.25,1076.7 3076,1077.5C 3076.5,1083.82 3076.67,1090.16 3076.5,1096.5C 3035.83,1096.5 2995.17,1096.5 2954.5,1096.5C 2954.5,1090.17 2954.5,1083.83 2954.5,1077.5C 2961.58,1077.29 2968.58,1076.45 2975.5,1075C 2980.54,1073.29 2983.37,1069.79 2984,1064.5C 2985.63,1015.86 2985.97,967.195 2985,918.5C 2984.62,900.614 2977.12,886.781 2962.5,877C 2933.82,867.234 2909.65,873.734 2890,896.5C 2889.33,952.167 2889.33,1007.83 2890,1063.5C 2891,1069.16 2894.16,1072.99 2899.5,1075C 2906.1,1076.38 2912.76,1077.21 2919.5,1077.5C 2919.81,1083.76 2919.48,1089.92 2918.5,1096C 2876.83,1096.5 2835.17,1096.67 2793.5,1096.5C 2793.5,1089.83 2793.5,1083.17 2793.5,1076.5C 2802.41,1077.08 2811.07,1075.91 2819.5,1073C 2824.42,1069.41 2826.58,1064.58 2826,1058.5C 2826.97,998.809 2826.64,939.142 2825,879.5C 2823.39,874.476 2819.89,871.643 2814.5,871C 2808.51,870.501 2802.51,870.334 2796.5,870.5C 2796.5,864.167 2796.5,857.833 2796.5,851.5C 2820.76,846.94 2845.1,842.773 2869.5,839C 2875.49,838.501 2881.49,838.334 2887.5,838.5C 2887.17,849.187 2887.5,859.854 2888.5,870.5C 2910.2,852.649 2934.87,841.316 2962.5,836.5 Z"/></g>
<g><path style="opacity:0.984" fill="#285a84" d="M 3799.5,836.5 C 3825.17,834.428 3849.83,838.261 3873.5,848C 3895.58,861.854 3910.41,881.354 3918,906.5C 3923.62,928.118 3926.12,950.118 3925.5,972.5C 3872.83,972.333 3820.17,972.5 3767.5,973C 3768.29,992.787 3772.13,1011.95 3779,1030.5C 3790.99,1055.09 3810.83,1066.76 3838.5,1065.5C 3860.47,1066.12 3878.63,1058.12 3893,1041.5C 3898.3,1033.77 3903.13,1025.77 3907.5,1017.5C 3912.63,1020.24 3917.63,1023.24 3922.5,1026.5C 3923.63,1028.07 3923.8,1029.74 3923,1031.5C 3901.36,1083.75 3862.19,1106.92 3805.5,1101C 3756.89,1099.13 3724.72,1075.3 3709,1029.5C 3699.01,989.825 3699.01,950.158 3709,910.5C 3722.74,865.943 3752.91,841.276 3799.5,836.5 Z M 3810.5,859.5 C 3837.39,857.518 3852.56,869.852 3856,896.5C 3859.06,914.03 3860.23,931.697 3859.5,949.5C 3828.83,949.5 3798.17,949.5 3767.5,949.5C 3768.26,932.715 3770.09,916.048 3773,899.5C 3775.87,886.741 3782.04,876.074 3791.5,867.5C 3797.35,863.399 3803.69,860.732 3810.5,859.5 Z"/></g>
<g><path style="opacity:0.981" fill="#285a84" d="M 3363.5,838.5 C 3379.17,838.333 3394.84,838.5 3410.5,839C 3448.87,844.38 3468.7,866.546 3470,905.5C 3470.33,954.833 3470.67,1004.17 3471,1053.5C 3471.29,1062.43 3475.45,1068.59 3483.5,1072C 3486.83,1072.67 3490.17,1072.67 3493.5,1072C 3497.17,1070.72 3500.83,1069.56 3504.5,1068.5C 3505.26,1073.34 3506.59,1078.01 3508.5,1082.5C 3508.31,1084.58 3507.31,1086.08 3505.5,1087C 3481.38,1100.12 3455.71,1104.12 3428.5,1099C 3417.32,1095.8 3411.15,1088.3 3410,1076.5C 3409.5,1073.52 3409.34,1070.52 3409.5,1067.5C 3397.43,1076.71 3384.77,1085.21 3371.5,1093C 3344.3,1104.56 3317.3,1104.23 3290.5,1092C 3270.4,1079.12 3262.24,1060.62 3266,1036.5C 3269.92,1016.23 3280.09,999.726 3296.5,987C 3316.28,972.274 3337.95,960.94 3361.5,953C 3377.02,948.525 3392.69,944.692 3408.5,941.5C 3409.67,928.513 3409.83,915.513 3409,902.5C 3406.95,880.786 3395.12,868.619 3373.5,866C 3358.87,863.963 3344.87,865.963 3331.5,872C 3329.39,873.141 3327.56,874.641 3326,876.5C 3325.37,878.635 3325.7,880.635 3327,882.5C 3330.96,887.803 3334.96,893.137 3339,898.5C 3341.66,908.236 3340.66,917.569 3336,926.5C 3326.42,937.069 3314.59,940.569 3300.5,937C 3286.09,931.892 3279.09,921.559 3279.5,906C 3279.79,895.663 3282.62,886.163 3288,877.5C 3298.14,864.178 3310.97,854.344 3326.5,848C 3332.77,845.847 3339.11,843.847 3345.5,842C 3351.72,841.256 3357.72,840.089 3363.5,838.5 Z M 3406.5,964.5 C 3407.5,964.5 3408.5,964.5 3409.5,964.5C 3409.5,990.5 3409.5,1016.5 3409.5,1042.5C 3398.68,1049.91 3387.01,1055.74 3374.5,1060C 3358.14,1063.87 3343.97,1060.03 3332,1048.5C 3323.56,1032.01 3324.56,1016.01 3335,1000.5C 3344.69,989.744 3356.19,981.577 3369.5,976C 3381.65,971.473 3393.98,967.64 3406.5,964.5 Z"/></g>
<g><path style="opacity:1" fill="#ef6f53" d="M 745.5,880.5 C 787.452,907.482 829.119,934.982 870.5,963C 917.657,998.106 945.824,1044.94 955,1103.5C 963.224,1186.84 936.058,1256.01 873.5,1311C 791.91,1370.88 709.244,1372.55 625.5,1316C 566.549,1268.59 536.549,1206.76 535.5,1130.5C 538.128,1060.07 567.461,1003.9 623.5,962C 664.404,935.058 705.071,907.891 745.5,880.5 Z"/></g>
</svg>
