<?xml version="1.0" encoding="UTF-8"?>
<!DOCTYPE svg PUBLIC "-//W3C//DTD SVG 1.1//EN" "http://www.w3.org/Graphics/SVG/1.1/DTD/svg11.dtd">
<svg xmlns="http://www.w3.org/2000/svg" version="1.1" width="3735px" height="1443px" style="shape-rendering:geometricPrecision; text-rendering:geometricPrecision; image-rendering:optimizeQuality; fill-rule:evenodd; clip-rule:evenodd" xmlns:xlink="http://www.w3.org/1999/xlink">
<g><path style="opacity:0.998" fill="#ef6f53" d="M -0.5,776.5 C -0.5,752.833 -0.5,729.167 -0.5,705.5C 15.2355,503.813 103.569,342.646 264.5,222C 417.309,116.035 585.309,81.0352 768.5,117C 918.625,151.595 1041.46,228.762 1137,348.5C 1238.88,482.948 1282.54,634.615 1268,803.5C 1246.14,992.12 1159.98,1143.29 1009.5,1257C 856.222,1364.89 687.222,1400.89 502.5,1365C 318.798,1322.14 178.965,1219.97 83,1058.5C 33.4316,970.885 5.59828,876.885 -0.5,776.5 Z"/></g>
<g><path style="opacity:1" fill="#fefefe" d="M 643.5,299.5 C 645.624,300.031 647.124,301.365 648,303.5C 690.961,372.425 734.628,440.758 779,508.5C 844.96,463.377 910.794,418.043 976.5,372.5C 960.172,558.754 943.339,745.087 926,931.5C 915.664,1001.8 889.664,1065.47 848,1122.5C 786.91,1197.76 707.744,1230.26 610.5,1220C 557.06,1213.11 510.727,1191.44 471.5,1155C 434.034,1117.48 406.201,1073.65 388,1023.5C 376.703,992.645 368.703,960.978 364,928.5C 346.669,743.196 330.003,557.863 314,372.5C 379.587,417.71 445.087,463.043 510.5,508.5C 555.221,439.106 599.554,369.439 643.5,299.5 Z"/></g>
<g><path style="opacity:1" fill="#ef6f53" d="M 643.5,426.5 C 670.331,466.293 696.331,506.793 721.5,548C 696.295,566.197 670.795,584.03 645,601.5C 619.029,583.695 593.195,565.695 567.5,547.5C 593.105,507.279 618.438,466.946 643.5,426.5 Z"/></g>
<g><path style="opacity:1" fill="#ef6f53" d="M 393.5,512.5 C 456.63,556.57 519.963,600.404 583.5,644C 555.5,663.333 527.5,682.667 499.5,702C 466.009,725.153 439.176,754.32 419,789.5C 410.469,697.16 401.969,604.826 393.5,512.5 Z"/></g>
<g><path style="opacity:1" fill="#ef6f53" d="M 894.5,513.5 C 895.777,514.694 896.444,516.36 896.5,518.5C 888.27,608.864 879.77,699.197 871,789.5C 850.824,754.32 823.991,725.153 790.5,702C 762.557,683.056 734.89,663.723 707.5,644C 769.9,600.478 832.233,556.978 894.5,513.5 Z"/></g>
<g><path style="opacity:0.999" fill="#f9fafb" d="M 1633.5,653.5 C 1639.33,654.729 1645.33,655.729 1651.5,656.5C 1665.59,659.609 1679.26,664.109 1692.5,670C 1697.5,672 1702.5,672 1707.5,670C 1710.51,666.846 1712.84,663.346 1714.5,659.5C 1718.83,659.5 1723.17,659.5 1727.5,659.5C 1727.86,668.007 1728.53,676.34 1729.5,684.5C 1730.23,685.708 1730.57,687.041 1730.5,688.5C 1729.83,691.649 1729.5,694.982 1729.5,698.5C 1730.12,713.348 1731.12,728.015 1732.5,742.5C 1732.83,743.167 1733.17,743.833 1733.5,744.5C 1732.52,748.634 1732.18,752.968 1732.5,757.5C 1728.17,757.5 1723.83,757.5 1719.5,757.5C 1714.29,732.947 1702.63,711.947 1684.5,694.5C 1679.32,690.746 1673.99,687.246 1668.5,684C 1661.32,680.935 1653.98,678.435 1646.5,676.5C 1642.43,674.982 1638.1,674.149 1633.5,674C 1626.32,673.179 1619.32,673.345 1612.5,674.5C 1589.71,676.749 1570.54,686.416 1555,703.5C 1535.59,727.344 1524.09,754.678 1520.5,785.5C 1518.13,793.069 1517.46,800.736 1518.5,808.5C 1517.17,822.833 1517.17,837.167 1518.5,851.5C 1517.37,860.262 1518.03,868.928 1520.5,877.5C 1524.74,903.508 1533.41,927.841 1546.5,950.5C 1558.81,968.496 1575.48,980.163 1596.5,985.5C 1600.26,986.832 1604.26,987.665 1608.5,988C 1617.01,988.823 1625.34,988.657 1633.5,987.5C 1638.77,987.811 1643.77,987.145 1648.5,985.5C 1664.01,982.744 1677.68,976.244 1689.5,966C 1704.25,950.745 1715.58,933.245 1723.5,913.5C 1727.42,914.86 1731.09,916.694 1734.5,919C 1736.21,919.777 1737.21,921.11 1737.5,923C 1727.46,958.04 1706.13,983.707 1673.5,1000C 1661.95,1004.81 1649.95,1007.64 1637.5,1008.5C 1621.67,1009.37 1606,1009.7 1590.5,1009.5C 1589.83,1009.17 1589.17,1008.83 1588.5,1008.5C 1583.71,1007.28 1578.71,1006.61 1573.5,1006.5C 1519.64,998.791 1481.81,970.124 1460,920.5C 1457.39,913.289 1455.23,905.955 1453.5,898.5C 1453.95,895.99 1453.28,893.99 1451.5,892.5C 1451.5,891.167 1451.5,889.833 1451.5,888.5C 1450.99,882.951 1449.99,877.617 1448.5,872.5C 1448.17,871.833 1447.83,871.167 1447.5,870.5C 1448.16,869.036 1448.49,867.369 1448.5,865.5C 1448.1,859.653 1447.43,853.986 1446.5,848.5C 1445.17,839.833 1445.17,831.167 1446.5,822.5C 1447.63,814.686 1448.3,806.686 1448.5,798.5C 1448.5,798.167 1448.5,797.833 1448.5,797.5C 1449.86,792.025 1450.86,786.358 1451.5,780.5C 1462.43,719.398 1497.43,679.232 1556.5,660C 1562.7,658.033 1569.03,656.867 1575.5,656.5C 1583.34,655.759 1591.01,654.759 1598.5,653.5C 1610.17,652.167 1621.83,652.167 1633.5,653.5 Z"/></g>
<g><path style="opacity:0.999" fill="#fafbfc" d="M 2348.5,653.5 C 2355.67,654.691 2363,655.691 2370.5,656.5C 2370.83,656.5 2371.17,656.5 2371.5,656.5C 2375.62,657.943 2379.95,658.943 2384.5,659.5C 2385.5,659.5 2386.5,659.5 2387.5,659.5C 2389.32,661.448 2391.65,662.448 2394.5,662.5C 2423.3,671.151 2445.8,688.151 2462,713.5C 2474.95,733.728 2483.11,755.728 2486.5,779.5C 2490.36,806.385 2491.36,833.385 2489.5,860.5C 2488.31,867.67 2487.31,875.003 2486.5,882.5C 2481.01,923.608 2462.34,957.108 2430.5,983C 2425.88,985.302 2421.55,987.968 2417.5,991C 2412.37,993.656 2407.03,995.823 2401.5,997.5C 2399.03,997.755 2397.03,998.755 2395.5,1000.5C 2385.88,1004.31 2375.88,1006.64 2365.5,1007.5C 2366.57,1026.37 2373.57,1042.54 2386.5,1056C 2406.14,1066.63 2425.14,1065.46 2443.5,1052.5C 2446.48,1056.29 2448.81,1060.46 2450.5,1065C 2427.29,1089.01 2398.95,1098.01 2365.5,1092C 2329.43,1083.27 2306.93,1060.77 2298,1024.5C 2297.12,1019.16 2296.29,1013.83 2295.5,1008.5C 2243.59,1002.17 2206.76,975.507 2185,928.5C 2176.53,908.662 2171.03,887.996 2168.5,866.5C 2167.61,845.349 2167.61,824.016 2168.5,802.5C 2170.61,757.917 2186.95,719.751 2217.5,688C 2237.71,670.73 2261.05,660.23 2287.5,656.5C 2295.02,655.854 2302.35,654.854 2309.5,653.5C 2322.5,652.167 2335.5,652.167 2348.5,653.5 Z M 2346.5,676.5 C 2372.68,683.522 2391.18,699.522 2402,724.5C 2404.25,731.113 2406.75,737.446 2409.5,743.5C 2409.17,746.228 2409.84,748.562 2411.5,750.5C 2414.48,763.003 2416.48,775.67 2417.5,788.5C 2418.87,798.782 2419.54,809.115 2419.5,819.5C 2419.5,827.167 2419.5,834.833 2419.5,842.5C 2419.1,855.182 2418.43,867.849 2417.5,880.5C 2414.32,903.198 2407.82,924.864 2398,945.5C 2385.14,969.504 2365.3,983.504 2338.5,987.5C 2328.76,987.755 2319.09,987.089 2309.5,985.5C 2284.33,977.838 2266.5,961.838 2256,937.5C 2248.27,918.483 2243.1,898.816 2240.5,878.5C 2237.83,846.834 2237.83,815.168 2240.5,783.5C 2243.52,760.94 2249.69,739.273 2259,718.5C 2267.9,701.936 2280.73,689.436 2297.5,681C 2303.02,678.902 2308.69,677.402 2314.5,676.5C 2325.15,675.252 2335.82,675.252 2346.5,676.5 Z"/></g>
<g><path style="opacity:0.665" fill="#7c95b1" d="M 1598.5,653.5 C 1591.01,654.759 1583.34,655.759 1575.5,656.5C 1582.84,654.031 1590.5,653.031 1598.5,653.5 Z"/></g>
<g><path style="opacity:0.722" fill="#7c97b5" d="M 1633.5,653.5 C 1639.87,653.062 1645.87,654.062 1651.5,656.5C 1645.33,655.729 1639.33,654.729 1633.5,653.5 Z"/></g>
<g><path style="opacity:0.787" fill="#7f9bb4" d="M 2309.5,653.5 C 2302.35,654.854 2295.02,655.854 2287.5,656.5C 2294.51,654.076 2301.84,653.076 2309.5,653.5 Z"/></g>
<g><path style="opacity:0.631" fill="#829dba" d="M 2348.5,653.5 C 2356.16,653.076 2363.5,654.076 2370.5,656.5C 2363,655.691 2355.67,654.691 2348.5,653.5 Z"/></g>
<g><path style="opacity:0.69" fill="#7f94b7" d="M 2371.5,656.5 C 2376.26,656.124 2380.59,657.124 2384.5,659.5C 2379.95,658.943 2375.62,657.943 2371.5,656.5 Z"/></g>
<g><path style="opacity:0.659" fill="#91abc0" d="M 1921.5,658.5 C 1921.5,658.833 1921.5,659.167 1921.5,659.5C 1874.17,659.5 1826.83,659.5 1779.5,659.5C 1779.5,665.167 1779.5,670.833 1779.5,676.5C 1778.51,670.69 1778.18,664.69 1778.5,658.5C 1826.17,658.5 1873.83,658.5 1921.5,658.5 Z"/></g>
<g><path style="opacity:0.659" fill="#91abc0" d="M 2130.5,676.5 C 2130.5,670.833 2130.5,665.167 2130.5,659.5C 2083.17,659.5 2035.83,659.5 1988.5,659.5C 1988.5,665.167 1988.5,670.833 1988.5,676.5C 1987.51,670.69 1987.18,664.69 1987.5,658.5C 2035.5,658.5 2083.5,658.5 2131.5,658.5C 2131.82,664.69 2131.49,670.69 2130.5,676.5 Z"/></g>
<g><path style="opacity:1" fill="#fefefe" d="M 1921.5,659.5 C 1922.49,664.975 1922.82,670.642 1922.5,676.5C 1922.17,676.5 1921.83,676.5 1921.5,676.5C 1913.78,676.238 1906.11,676.738 1898.5,678C 1897.94,678.383 1897.61,678.883 1897.5,679.5C 1891.35,680.487 1887.02,683.821 1884.5,689.5C 1882.96,694.919 1882.12,700.586 1882,706.5C 1881.33,741.5 1881.33,776.5 1882,811.5C 1882.5,812 1883,812.5 1883.5,813C 1931.17,813.667 1978.83,813.667 2026.5,813C 2027.06,812.617 2027.39,812.117 2027.5,811.5C 2027.97,771.46 2027.47,731.46 2026,691.5C 2025.03,685.865 2021.87,682.032 2016.5,680C 2007.1,678.21 1997.77,677.043 1988.5,676.5C 1988.5,670.833 1988.5,665.167 1988.5,659.5C 2035.83,659.5 2083.17,659.5 2130.5,659.5C 2130.5,665.167 2130.5,670.833 2130.5,676.5C 2121.57,677.065 2112.57,678.232 2103.5,680C 2097.91,681.417 2094.58,684.917 2093.5,690.5C 2092.88,690.611 2092.38,690.944 2092,691.5C 2091.67,694.5 2091.33,697.5 2091,700.5C 2090.33,787.833 2090.33,875.167 2091,962.5C 2091.11,966.465 2091.94,970.132 2093.5,973.5C 2095.01,977.026 2097.34,979.86 2100.5,982C 2106.46,983.639 2112.46,984.806 2118.5,985.5C 2122.3,986.483 2126.3,986.817 2130.5,986.5C 2130.5,992.167 2130.5,997.833 2130.5,1003.5C 2083.17,1003.5 2035.83,1003.5 1988.5,1003.5C 1988.5,997.833 1988.5,992.167 1988.5,986.5C 1993.69,986.821 1998.69,986.487 2003.5,985.5C 2010.38,984.819 2016.71,982.652 2022.5,979C 2025.24,975.266 2026.91,971.099 2027.5,966.5C 2028.5,922.67 2028.83,878.67 2028.5,834.5C 1980,834.168 1931.66,834.501 1883.5,835.5C 1882.88,835.611 1882.38,835.944 1882,836.5C 1881.33,876.833 1881.33,917.167 1882,957.5C 1882.09,962.766 1882.92,967.766 1884.5,972.5C 1885.75,977.008 1888.41,980.341 1892.5,982.5C 1896.93,985.302 1901.59,985.969 1906.5,984.5C 1911.45,985.329 1916.45,985.663 1921.5,985.5C 1921.5,985.833 1921.5,986.167 1921.5,986.5C 1921.5,992.167 1921.5,997.833 1921.5,1003.5C 1874.17,1003.5 1826.83,1003.5 1779.5,1003.5C 1779.5,997.833 1779.5,992.167 1779.5,986.5C 1785.37,985.752 1791.37,985.086 1797.5,984.5C 1799.29,985.622 1801.29,985.789 1803.5,985C 1805.79,984.178 1808.12,983.511 1810.5,983C 1811.38,982.292 1812.05,981.458 1812.5,980.5C 1815.52,977.797 1817.52,974.464 1818.5,970.5C 1819.3,969.048 1819.8,967.382 1820,965.5C 1820.67,876.5 1820.67,787.5 1820,698.5C 1819.62,697.944 1819.12,697.611 1818.5,697.5C 1817.56,684.728 1810.56,678.228 1797.5,678C 1791.32,677.828 1785.32,677.328 1779.5,676.5C 1779.5,670.833 1779.5,665.167 1779.5,659.5C 1826.83,659.5 1874.17,659.5 1921.5,659.5 Z"/></g>
<g><path style="opacity:0.067" fill="#2d5a84" d="M 1921.5,659.5 C 1921.5,659.167 1921.5,658.833 1921.5,658.5C 1922.82,661.087 1923.48,664.087 1923.5,667.5C 1923.5,670.686 1923.16,673.686 1922.5,676.5C 1922.82,670.642 1922.49,664.975 1921.5,659.5 Z"/></g>
<g><path style="opacity:0.678" fill="#7683bc" d="M 2387.5,659.5 C 2390.16,659.935 2392.49,660.935 2394.5,662.5C 2391.65,662.448 2389.32,661.448 2387.5,659.5 Z"/></g>
<g><path style="opacity:0.786" fill="#8ea6bd" d="M 1612.5,674.5 C 1619.32,673.345 1626.32,673.179 1633.5,674C 1638.1,674.149 1642.43,674.982 1646.5,676.5C 1635.22,674.97 1623.89,674.303 1612.5,674.5 Z"/></g>
<g><path style="opacity:0.62" fill="#7590ac" d="M 2346.5,676.5 C 2335.82,675.252 2325.15,675.252 2314.5,676.5C 2314.61,675.883 2314.94,675.383 2315.5,675C 2324.5,674.333 2333.5,674.333 2342.5,675C 2344.06,675.21 2345.39,675.71 2346.5,676.5 Z"/></g>
<g><path style="opacity:0.999" fill="#fbfcfd" d="M 3309.5,757.5 C 3327.33,758.497 3345.33,758.83 3363.5,758.5C 3363.5,765.167 3363.5,771.833 3363.5,778.5C 3345.83,778.333 3328.16,778.5 3310.5,779C 3309.94,779.383 3309.61,779.883 3309.5,780.5C 3309.33,832.834 3309.5,885.168 3310,937.5C 3309.73,951.372 3314.9,962.538 3325.5,971C 3328.86,973.064 3332.53,974.231 3336.5,974.5C 3336.61,975.117 3336.94,975.617 3337.5,976C 3340.33,976.167 3343.17,976.333 3346,976.5C 3350.44,976.674 3354.61,976.007 3358.5,974.5C 3362.73,972.889 3367.06,971.556 3371.5,970.5C 3372.96,974.105 3374.46,977.771 3376,981.5C 3376.78,982.944 3376.61,984.277 3375.5,985.5C 3361.89,994.92 3347.22,1002.42 3331.5,1008C 3317.83,1009.95 3304.16,1009.95 3290.5,1008C 3265.58,1000.35 3251.92,983.516 3249.5,957.5C 3250.67,898.335 3250.83,839.001 3250,779.5C 3240.25,778.514 3230.42,778.181 3220.5,778.5C 3220.21,772.409 3220.54,766.409 3221.5,760.5C 3246.1,752.322 3263.6,736.322 3274,712.5C 3279.3,700.937 3283.63,688.937 3287,676.5C 3294.33,675.167 3301.67,675.167 3309,676.5C 3309.5,703.498 3309.67,730.498 3309.5,757.5 Z"/></g>
<g><path style="opacity:0.602" fill="#88a0b8" d="M 1921.5,676.5 C 1913.59,677.169 1905.59,678.169 1897.5,679.5C 1897.61,678.883 1897.94,678.383 1898.5,678C 1906.11,676.738 1913.78,676.238 1921.5,676.5 Z"/></g>
<g><path style="opacity:0.801" fill="#88a2ba" d="M 1714.5,659.5 C 1718.97,658.514 1723.64,658.181 1728.5,658.5C 1729.41,667.126 1729.74,675.792 1729.5,684.5C 1728.53,676.34 1727.86,668.007 1727.5,659.5C 1723.17,659.5 1718.83,659.5 1714.5,659.5 Z"/></g>
<g><path style="opacity:1" fill="#ef6f53" d="M 643.5,687.5 C 644.873,687.343 646.207,687.51 647.5,688C 684.5,713.667 721.5,739.333 758.5,765C 801.19,797.1 827.69,839.6 838,892.5C 848.898,963.258 831.898,1026.26 787,1081.5C 730.4,1142.69 662.234,1161.19 582.5,1137C 525.391,1113.22 485.891,1072.39 464,1014.5C 439.98,949.443 444.313,886.443 477,825.5C 490.561,801.933 508.394,782.1 530.5,766C 568.233,739.811 605.9,713.644 643.5,687.5 Z"/></g>
<g><path style="opacity:0.84" fill="#90a9bf" d="M 2093.5,690.5 C 2092.89,694.472 2092.39,698.472 2092,702.5C 2091.33,788.5 2091.33,874.5 2092,960.5C 2092.46,964.848 2092.96,969.181 2093.5,973.5C 2091.94,970.132 2091.11,966.465 2091,962.5C 2090.33,875.167 2090.33,787.833 2091,700.5C 2091.33,697.5 2091.67,694.5 2092,691.5C 2092.38,690.944 2092.88,690.611 2093.5,690.5 Z"/></g>
<g><path style="opacity:0.769" fill="#90aac0" d="M 1818.5,697.5 C 1819.12,697.611 1819.62,697.944 1820,698.5C 1820.67,787.5 1820.67,876.5 1820,965.5C 1819.8,967.382 1819.3,969.048 1818.5,970.5C 1819.82,879.492 1819.82,788.492 1818.5,697.5 Z"/></g>
<g><path style="opacity:0.757" fill="#7c9bb2" d="M 1730.5,688.5 C 1731.74,706.477 1732.4,724.477 1732.5,742.5C 1731.12,728.015 1730.12,713.348 1729.5,698.5C 1729.5,694.982 1729.83,691.649 1730.5,688.5 Z"/></g>
<g><path style="opacity:0.661" fill="#7b8bbe" d="M 2409.5,743.5 C 2410.61,745.599 2411.28,747.933 2411.5,750.5C 2409.84,748.562 2409.17,746.228 2409.5,743.5 Z"/></g>
<g><path style="opacity:0.821" fill="#7f99b4" d="M 2709.5,754.5 C 2698.84,753.211 2688.17,753.211 2677.5,754.5C 2682.57,752.943 2687.9,752.276 2693.5,752.5C 2699.1,752.276 2704.43,752.943 2709.5,754.5 Z"/></g>
<g><path style="opacity:0.997" fill="#fcfcfd" d="M 2709.5,754.5 C 2731.75,758.547 2748.25,770.547 2759,790.5C 2778.97,770.582 2802.8,758.582 2830.5,754.5C 2841.51,753.309 2852.51,753.309 2863.5,754.5C 2889.37,759.526 2905.87,774.859 2913,800.5C 2913.5,802.473 2913.66,804.473 2913.5,806.5C 2913.78,812.021 2914.45,817.354 2915.5,822.5C 2916.33,871.763 2916.83,921.096 2917,970.5C 2917.3,975.406 2919.47,979.239 2923.5,982C 2928.45,983.584 2933.45,984.751 2938.5,985.5C 2941.62,986.479 2944.96,986.813 2948.5,986.5C 2948.5,992.167 2948.5,997.833 2948.5,1003.5C 2908.17,1003.5 2867.83,1003.5 2827.5,1003.5C 2827.5,997.833 2827.5,992.167 2827.5,986.5C 2832.03,986.818 2836.37,986.485 2840.5,985.5C 2848.25,985.554 2853.08,981.887 2855,974.5C 2855.5,971.183 2855.67,967.85 2855.5,964.5C 2856.12,964.389 2856.62,964.056 2857,963.5C 2857.67,921.5 2857.67,879.5 2857,837.5C 2856.62,836.944 2856.12,836.611 2855.5,836.5C 2856.55,819.779 2850.88,805.945 2838.5,795C 2834.88,793.072 2831.22,791.238 2827.5,789.5C 2817.5,785.5 2807.5,785.5 2797.5,789.5C 2783.85,795.157 2772.51,803.824 2763.5,815.5C 2762.33,866.998 2762.17,918.665 2763,970.5C 2763.2,972.382 2763.7,974.048 2764.5,975.5C 2769.08,981.828 2775.41,985.161 2783.5,985.5C 2785.95,986.473 2788.61,986.806 2791.5,986.5C 2791.5,992.167 2791.5,997.833 2791.5,1003.5C 2752.5,1003.5 2713.5,1003.5 2674.5,1003.5C 2674.5,997.833 2674.5,992.167 2674.5,986.5C 2678.7,986.817 2682.7,986.483 2686.5,985.5C 2694.99,985.639 2700.16,981.639 2702,973.5C 2702.67,924.167 2702.67,874.833 2702,825.5C 2699.99,807.345 2690.49,795.345 2673.5,789.5C 2664.8,786.166 2655.8,785.666 2646.5,788C 2645.94,788.383 2645.61,788.883 2645.5,789.5C 2639.35,791.045 2633.35,793.212 2627.5,796C 2621.37,800.294 2615.71,805.127 2610.5,810.5C 2609.33,864.665 2609.17,918.998 2610,973.5C 2610.2,975.32 2611.03,976.653 2612.5,977.5C 2612.86,979.371 2613.86,980.871 2615.5,982C 2619.06,983.609 2622.73,984.775 2626.5,985.5C 2629.96,986.482 2633.63,986.815 2637.5,986.5C 2637.5,992.167 2637.5,997.833 2637.5,1003.5C 2597.5,1003.5 2557.5,1003.5 2517.5,1003.5C 2517.5,997.833 2517.5,992.167 2517.5,986.5C 2520.71,986.81 2523.71,986.477 2526.5,985.5C 2527.71,984.766 2529.04,984.433 2530.5,984.5C 2532.29,985.622 2534.29,985.789 2536.5,985C 2539.28,984.478 2541.61,983.311 2543.5,981.5C 2545.83,979.066 2547.33,976.066 2548,972.5C 2548.67,914.167 2548.67,855.833 2548,797.5C 2547.95,791.621 2545.11,787.954 2539.5,786.5C 2533.36,785.51 2527.02,785.177 2520.5,785.5C 2520.5,779.5 2520.5,773.5 2520.5,767.5C 2522.41,767.784 2524.08,767.451 2525.5,766.5C 2532.39,764.695 2539.39,763.362 2546.5,762.5C 2547.1,763.139 2547.93,763.472 2549,763.5C 2553.71,762.861 2558.21,761.861 2562.5,760.5C 2563.17,760.167 2563.83,759.833 2564.5,759.5C 2565.1,760.139 2565.93,760.472 2567,760.5C 2571.71,759.861 2576.21,758.861 2580.5,757.5C 2581.17,757.167 2581.83,756.833 2582.5,756.5C 2590.63,756.687 2598.97,756.687 2607.5,756.5C 2607.5,766.5 2607.5,776.5 2607.5,786.5C 2608.79,786.737 2609.79,786.404 2610.5,785.5C 2626.95,771.77 2645.62,761.936 2666.5,756C 2670.11,755.064 2673.78,754.564 2677.5,754.5C 2688.17,753.211 2698.84,753.211 2709.5,754.5 Z"/></g>
<g><path style="opacity:0.778" fill="#819ab9" d="M 2863.5,754.5 C 2852.51,753.309 2841.51,753.309 2830.5,754.5C 2835.75,752.978 2841.25,752.311 2847,752.5C 2852.75,752.311 2858.25,752.978 2863.5,754.5 Z"/></g>
<g><path style="opacity:0.839" fill="#7d9cb5" d="M 3533.5,754.5 C 3518.83,753.167 3504.17,753.167 3489.5,754.5C 3496.43,752.961 3503.6,752.294 3511,752.5C 3518.73,752.316 3526.23,752.983 3533.5,754.5 Z"/></g>
<g><path style="opacity:0.999" fill="#f9fafc" d="M 3533.5,754.5 C 3557.83,756.359 3577.5,766.692 3592.5,785.5C 3592.43,787.027 3593.09,788.027 3594.5,788.5C 3603.59,801.006 3609.59,815.006 3612.5,830.5C 3613.01,835.391 3614.01,840.058 3615.5,844.5C 3615.83,845.167 3616.17,845.833 3616.5,846.5C 3615.84,847.793 3615.51,849.293 3615.5,851C 3615.96,857.34 3616.63,863.506 3617.5,869.5C 3618.81,874.334 3618.81,879.167 3617.5,884C 3566.5,884.5 3515.5,884.667 3464.5,884.5C 3463.85,885.274 3463.52,886.274 3463.5,887.5C 3463.99,892.337 3464.66,897.004 3465.5,901.5C 3467.34,921.581 3473.84,939.914 3485,956.5C 3496.29,968.214 3510.13,974.214 3526.5,974.5C 3526.61,975.117 3526.94,975.617 3527.5,976C 3531.83,976.667 3536.17,976.667 3540.5,976C 3541.06,975.617 3541.39,975.117 3541.5,974.5C 3554.66,973.738 3566.32,969.404 3576.5,961.5C 3580.5,959.5 3583.5,956.5 3585.5,952.5C 3589.63,947.62 3593.13,942.286 3596,936.5C 3597.14,933.904 3597.97,931.237 3598.5,928.5C 3600.56,928.687 3602.56,929.187 3604.5,930C 3607.53,932.461 3610.86,934.461 3614.5,936C 3615.57,936.739 3616.24,937.739 3616.5,939C 3612.23,948.8 3607.4,958.3 3602,967.5C 3595.54,975.959 3588.38,983.792 3580.5,991C 3568.84,999.495 3555.84,1004.66 3541.5,1006.5C 3535.64,1006.72 3529.97,1007.38 3524.5,1008.5C 3515.83,1009.83 3507.17,1009.83 3498.5,1008.5C 3493.37,1007.34 3488.03,1006.67 3482.5,1006.5C 3464.87,1004.35 3449.54,997.351 3436.5,985.5C 3435.42,983.413 3433.75,982.08 3431.5,981.5C 3418.78,967.93 3410.28,951.93 3406,933.5C 3404.04,925.536 3402.54,917.536 3401.5,909.5C 3401.5,891.167 3401.5,872.833 3401.5,854.5C 3403.73,829.04 3412.4,806.04 3427.5,785.5C 3444.06,767.22 3464.73,756.887 3489.5,754.5C 3504.17,753.167 3518.83,753.167 3533.5,754.5 Z M 3551.5,815.5 C 3552.33,824.153 3553,832.82 3553.5,841.5C 3554.29,848.471 3554.62,855.471 3554.5,862.5C 3524.5,862.5 3494.5,862.5 3464.5,862.5C 3464.83,853.833 3465.17,845.167 3465.5,836.5C 3467.22,822.174 3471.06,808.508 3477,795.5C 3482.47,785.706 3490.64,779.206 3501.5,776C 3508.83,775.333 3516.17,775.333 3523.5,776C 3534.08,778.916 3541.58,785.416 3546,795.5C 3548.37,802.05 3550.2,808.716 3551.5,815.5 Z"/></g>
<g><path style="opacity:1" fill="#f9fafc" d="M 3173.5,807.5 C 3172.85,808.274 3172.52,809.274 3172.5,810.5C 3173.21,816.813 3173.71,823.147 3174,829.5C 3174.17,873.669 3174.67,917.669 3175.5,961.5C 3176,968.39 3178.67,974.223 3183.5,979C 3186.61,980.722 3189.94,981.555 3193.5,981.5C 3198.61,980.576 3203.61,979.242 3208.5,977.5C 3209.35,982.33 3210.68,986.997 3212.5,991.5C 3212.39,992.442 3212.06,993.275 3211.5,994C 3185.4,1009.64 3157.73,1013.31 3128.5,1005C 3123.94,1002.77 3120.77,999.273 3119,994.5C 3117.5,988.51 3116.17,982.51 3115,976.5C 3098.81,991.683 3079.97,1002.18 3058.5,1008C 3035.72,1012.19 3014.38,1008.53 2994.5,997C 2985.21,989.92 2979.55,980.753 2977.5,969.5C 2976.28,960.839 2976.28,952.172 2977.5,943.5C 2979.15,933.541 2982.98,924.541 2989,916.5C 3002.27,900.779 3018.1,888.279 3036.5,879C 3061.34,867.591 3087.34,859.758 3114.5,855.5C 3115.83,848.867 3116.5,841.867 3116.5,834.5C 3116.33,827.5 3116.17,820.5 3116,813.5C 3115.62,812.944 3115.12,812.611 3114.5,812.5C 3112.97,798.822 3105.97,789.322 3093.5,784C 3077.83,779.37 3062.16,779.37 3046.5,784C 3041.24,785.933 3037.24,789.266 3034.5,794C 3039.37,800.898 3043.87,808.064 3048,815.5C 3050.72,829.178 3046.56,840.011 3035.5,848C 3033.56,848.813 3031.56,849.313 3029.5,849.5C 3022.84,850.74 3016.17,850.74 3009.5,849.5C 2998.5,846.151 2992.17,838.818 2990.5,827.5C 2990.41,821.137 2990.74,814.804 2991.5,808.5C 2994.88,795.582 3001.88,785.082 3012.5,777C 3026.73,766.392 3042.73,759.892 3060.5,757.5C 3065.37,757.31 3070.04,756.644 3074.5,755.5C 3093.57,753.66 3112.57,754.494 3131.5,758C 3156.15,765.484 3170.15,781.984 3173.5,807.5 Z M 3114.5,876.5 C 3115.66,901.33 3115.83,926.33 3115,951.5C 3114.28,952.044 3113.78,952.711 3113.5,953.5C 3101.28,963.464 3087.28,969.131 3071.5,970.5C 3059.83,971.05 3049.83,967.383 3041.5,959.5C 3039.81,956.769 3038.14,954.102 3036.5,951.5C 3036.25,947.233 3035.58,943.066 3034.5,939C 3035.27,935.209 3035.94,931.376 3036.5,927.5C 3038.01,922.781 3039.85,918.114 3042,913.5C 3051.78,902.188 3063.61,893.688 3077.5,888C 3089.65,883.473 3101.99,879.64 3114.5,876.5 Z"/></g>
<g><path style="opacity:0.753" fill="#8fa9be" d="M 2610.5,785.5 C 2609.79,786.404 2608.79,786.737 2607.5,786.5C 2607.5,776.5 2607.5,766.5 2607.5,756.5C 2598.97,756.687 2590.63,756.687 2582.5,756.5C 2591.13,755.623 2599.8,755.289 2608.5,755.5C 2607.86,765.889 2608.53,775.889 2610.5,785.5 Z"/></g>
<g><path style="opacity:0.812" fill="#7b9cb2" d="M 3074.5,755.5 C 3070.04,756.644 3065.37,757.31 3060.5,757.5C 3064.88,755.789 3069.55,755.123 3074.5,755.5 Z"/></g>
<g><path style="opacity:0.659" fill="#8ba6bd" d="M 1733.5,744.5 C 1733.5,749.167 1733.5,753.833 1733.5,758.5C 1728.64,758.819 1723.97,758.486 1719.5,757.5C 1723.83,757.5 1728.17,757.5 1732.5,757.5C 1732.18,752.968 1732.52,748.634 1733.5,744.5 Z"/></g>
<g><path style="opacity:0.565" fill="#94abc2" d="M 3309.5,757.5 C 3327.83,757.5 3346.17,757.5 3364.5,757.5C 3364.5,764.5 3364.5,771.5 3364.5,778.5C 3364.17,778.5 3363.83,778.5 3363.5,778.5C 3363.5,771.833 3363.5,765.167 3363.5,758.5C 3345.33,758.83 3327.33,758.497 3309.5,757.5 Z"/></g>
<g><path style="opacity:0.769" fill="#7f9bb2" d="M 2580.5,757.5 C 2576.21,758.861 2571.71,759.861 2567,760.5C 2565.93,760.472 2565.1,760.139 2564.5,759.5C 2569.74,758.19 2575.08,757.524 2580.5,757.5 Z"/></g>
<g><path style="opacity:0.725" fill="#7c97b0" d="M 2562.5,760.5 C 2558.21,761.861 2553.71,762.861 2549,763.5C 2547.93,763.472 2547.1,763.139 2546.5,762.5C 2551.74,761.19 2557.08,760.524 2562.5,760.5 Z"/></g>
<g><path style="opacity:0.063" fill="#7391ab" d="M 3221.5,760.5 C 3220.54,766.409 3220.21,772.409 3220.5,778.5C 3230.42,778.181 3240.25,778.514 3250,779.5C 3250.83,839.001 3250.67,898.335 3249.5,957.5C 3249.5,898.5 3249.5,839.5 3249.5,780.5C 3239.5,780.5 3229.5,780.5 3219.5,780.5C 3218.87,773.416 3219.54,766.75 3221.5,760.5 Z"/></g>
<g><path style="opacity:0.063" fill="#537795" d="M 3363.5,778.5 C 3363.83,778.5 3364.17,778.5 3364.5,778.5C 3346.53,780.487 3328.2,781.154 3309.5,780.5C 3309.61,779.883 3309.94,779.383 3310.5,779C 3328.16,778.5 3345.83,778.333 3363.5,778.5 Z"/></g>
<g><path style="opacity:0.559" fill="#8ea5bf" d="M 2525.5,766.5 C 2524.08,767.451 2522.41,767.784 2520.5,767.5C 2520.5,773.5 2520.5,779.5 2520.5,785.5C 2527.02,785.177 2533.36,785.51 2539.5,786.5C 2532.83,786.5 2526.17,786.5 2519.5,786.5C 2519.5,779.833 2519.5,773.167 2519.5,766.5C 2521.5,766.5 2523.5,766.5 2525.5,766.5 Z"/></g>
<g><path style="opacity:0.631" fill="#7f99b7" d="M 1451.5,780.5 C 1450.86,786.358 1449.86,792.025 1448.5,797.5C 1448.13,791.468 1449.13,785.802 1451.5,780.5 Z"/></g>
<g><path style="opacity:0.797" fill="#7793b2" d="M 2673.5,789.5 C 2668.84,788.835 2664.18,788.169 2659.5,787.5C 2654.81,788.075 2650.14,788.742 2645.5,789.5C 2645.61,788.883 2645.94,788.383 2646.5,788C 2655.8,785.666 2664.8,786.166 2673.5,789.5 Z"/></g>
<g><path style="opacity:0.61" fill="#7292ac" d="M 2827.5,789.5 C 2822.68,788.781 2817.85,788.114 2813,787.5C 2807.83,788.223 2802.67,788.889 2797.5,789.5C 2807.5,785.5 2817.5,785.5 2827.5,789.5 Z"/></g>
<g><path style="opacity:0.039" fill="#2c4068" d="M 3592.5,785.5 C 3593.91,785.973 3594.57,786.973 3594.5,788.5C 3593.09,788.027 3592.43,787.027 3592.5,785.5 Z"/></g>
<g><path style="opacity:0.677" fill="#7c99b1" d="M 1520.5,785.5 C 1519.83,793.167 1519.17,800.833 1518.5,808.5C 1517.46,800.736 1518.13,793.069 1520.5,785.5 Z"/></g>
<g><path style="opacity:0.732" fill="#849eba" d="M 2417.5,788.5 C 2418.12,788.611 2418.62,788.944 2419,789.5C 2420.51,799.644 2420.68,809.644 2419.5,819.5C 2419.54,809.115 2418.87,798.782 2417.5,788.5 Z"/></g>
<g><path style="opacity:0.125" fill="#587d9e" d="M 1884.5,689.5 C 1883.54,730.152 1883.21,770.818 1883.5,811.5C 1931.5,811.5 1979.5,811.5 2027.5,811.5C 2027.39,812.117 2027.06,812.617 2026.5,813C 1978.83,813.667 1931.17,813.667 1883.5,813C 1883,812.5 1882.5,812 1882,811.5C 1881.33,776.5 1881.33,741.5 1882,706.5C 1882.12,700.586 1882.96,694.919 1884.5,689.5 Z"/></g>
<g><path style="opacity:0.846" fill="#7695b0" d="M 2168.5,802.5 C 2167.61,824.016 2167.61,845.349 2168.5,866.5C 2167.11,854.716 2166.44,842.883 2166.5,831C 2166.32,821.285 2166.99,811.785 2168.5,802.5 Z"/></g>
<g><path style="opacity:0.596" fill="#92abc2" d="M 2763.5,815.5 C 2763.2,868.846 2763.54,922.18 2764.5,975.5C 2763.7,974.048 2763.2,972.382 2763,970.5C 2762.17,918.665 2762.33,866.998 2763.5,815.5 Z"/></g>
<g><path style="opacity:0.751" fill="#8ca5bd" d="M 1448.5,798.5 C 1448.3,806.686 1447.63,814.686 1446.5,822.5C 1446.12,814.264 1446.78,806.264 1448.5,798.5 Z"/></g>
<g><path style="opacity:0.814" fill="#8ba5bb" d="M 2913.5,806.5 C 2915.26,811.553 2915.93,816.886 2915.5,822.5C 2914.45,817.354 2913.78,812.021 2913.5,806.5 Z"/></g>
<g><path style="opacity:0.549" fill="#809bb6" d="M 3551.5,815.5 C 3554.15,824.053 3554.82,832.719 3553.5,841.5C 3553,832.82 3552.33,824.153 3551.5,815.5 Z"/></g>
<g><path style="opacity:0.603" fill="#879fb8" d="M 2991.5,808.5 C 2990.74,814.804 2990.41,821.137 2990.5,827.5C 2989.84,825.19 2989.5,822.69 2989.5,820C 2989.35,815.888 2990.02,812.054 2991.5,808.5 Z"/></g>
<g><path style="opacity:0.573" fill="#89a3ba" d="M 2240.5,783.5 C 2237.83,815.168 2237.83,846.834 2240.5,878.5C 2239.09,871.715 2238.25,864.715 2238,857.5C 2237.33,839.833 2237.33,822.167 2238,804.5C 2238.25,797.285 2239.09,790.285 2240.5,783.5 Z"/></g>
<g><path style="opacity:0.549" fill="#8ea9be" d="M 3114.5,812.5 C 3115.12,812.611 3115.62,812.944 3116,813.5C 3116.17,820.5 3116.33,827.5 3116.5,834.5C 3116.5,841.867 3115.83,848.867 3114.5,855.5C 3115.78,841.216 3115.78,826.882 3114.5,812.5 Z"/></g>
<g><path style="opacity:0.149" fill="#547a9b" d="M 1883.5,835.5 C 1883.2,881.183 1883.53,926.85 1884.5,972.5C 1882.92,967.766 1882.09,962.766 1882,957.5C 1881.33,917.167 1881.33,876.833 1882,836.5C 1882.38,835.944 1882.88,835.611 1883.5,835.5 Z"/></g>
<g><path style="opacity:0.691" fill="#7a95ab" d="M 3612.5,830.5 C 3614.96,834.738 3615.96,839.404 3615.5,844.5C 3614.01,840.058 3613.01,835.391 3612.5,830.5 Z"/></g>
<g><path style="opacity:0.882" fill="#7291ae" d="M 2855.5,836.5 C 2856.12,836.611 2856.62,836.944 2857,837.5C 2857.67,879.5 2857.67,921.5 2857,963.5C 2856.62,964.056 2856.12,964.389 2855.5,964.5C 2855.5,921.833 2855.5,879.167 2855.5,836.5 Z"/></g>
<g><path style="opacity:0.576" fill="#809cb6" d="M 2486.5,779.5 C 2487.76,782.258 2488.59,785.258 2489,788.5C 2492,812.643 2492.17,836.643 2489.5,860.5C 2491.36,833.385 2490.36,806.385 2486.5,779.5 Z"/></g>
<g><path style="opacity:0.596" fill="#94aec2" d="M 1883.5,835.5 C 1931.66,834.501 1980,834.168 2028.5,834.5C 2028.83,878.67 2028.5,922.67 2027.5,966.5C 2027.5,922.833 2027.5,879.167 2027.5,835.5C 1979.5,835.5 1931.5,835.5 1883.5,835.5 Z"/></g>
<g><path style="opacity:0.537" fill="#93abbb" d="M 2610.5,810.5 C 2610.33,864.501 2610.5,918.501 2611,972.5C 2611.61,974.154 2612.11,975.821 2612.5,977.5C 2611.03,976.653 2610.2,975.32 2610,973.5C 2609.17,918.998 2609.33,864.665 2610.5,810.5 Z"/></g>
<g><path style="opacity:0.075" fill="#59799b" d="M 3009.5,849.5 C 3016.17,850.74 3022.84,850.74 3029.5,849.5C 3026.64,851.006 3023.48,851.672 3020,851.5C 3016.22,851.621 3012.72,850.954 3009.5,849.5 Z"/></g>
<g><path style="opacity:0.545" fill="#90a7b9" d="M 3173.5,807.5 C 3174,811.49 3174.5,815.49 3175,819.5C 3175.5,866.832 3175.67,914.165 3175.5,961.5C 3174.67,917.669 3174.17,873.669 3174,829.5C 3173.71,823.147 3173.21,816.813 3172.5,810.5C 3172.52,809.274 3172.85,808.274 3173.5,807.5 Z"/></g>
<g><path style="opacity:0.69" fill="#8ba5bc" d="M 3465.5,836.5 C 3465.17,845.167 3464.83,853.833 3464.5,862.5C 3463.19,853.789 3463.52,845.122 3465.5,836.5 Z"/></g>
<g><path style="opacity:0.765" fill="#89a4bb" d="M 3616.5,846.5 C 3617.31,854.138 3617.65,861.804 3617.5,869.5C 3616.63,863.506 3615.96,857.34 3615.5,851C 3615.51,849.293 3615.84,847.793 3616.5,846.5 Z"/></g>
<g><path style="opacity:0.683" fill="#879fbb" d="M 2489.5,860.5 C 2489.92,868.16 2488.92,875.493 2486.5,882.5C 2487.31,875.003 2488.31,867.67 2489.5,860.5 Z"/></g>
<g><path style="opacity:0.616" fill="#829cb7" d="M 1446.5,848.5 C 1447.43,853.986 1448.1,859.653 1448.5,865.5C 1448.49,867.369 1448.16,869.036 1447.5,870.5C 1446.75,863.191 1446.42,855.858 1446.5,848.5 Z"/></g>
<g><path style="opacity:0.663" fill="#7e9bb5" d="M 2419.5,842.5 C 2420.9,855.251 2420.23,867.917 2417.5,880.5C 2418.43,867.849 2419.1,855.182 2419.5,842.5 Z"/></g>
<g><path style="opacity:0.756" fill="#809eb6" d="M 1518.5,851.5 C 1519.17,860.167 1519.83,868.833 1520.5,877.5C 1518.03,868.928 1517.37,860.262 1518.5,851.5 Z"/></g>
<g><path style="opacity:0.675" fill="#869fb7" d="M 3401.5,854.5 C 3401.5,872.833 3401.5,891.167 3401.5,909.5C 3401.07,900.305 3400.41,891.138 3399.5,882C 3400.41,872.862 3401.07,863.695 3401.5,854.5 Z"/></g>
<g><path style="opacity:0.549" fill="#94afc3" d="M 3114.5,876.5 C 3114.56,875.957 3114.89,875.624 3115.5,875.5C 3116.67,901.16 3116.83,926.827 3116,952.5C 3115.33,953.252 3114.5,953.586 3113.5,953.5C 3113.78,952.711 3114.28,952.044 3115,951.5C 3115.83,926.33 3115.66,901.33 3114.5,876.5 Z"/></g>
<g><path style="opacity:0.761" fill="#7b97b3" d="M 1448.5,872.5 C 1449.99,877.617 1450.99,882.951 1451.5,888.5C 1449.26,883.518 1448.26,878.184 1448.5,872.5 Z"/></g>
<g><path style="opacity:0.671" fill="#707dae" d="M 1451.5,892.5 C 1453.28,893.99 1453.95,895.99 1453.5,898.5C 1452.26,896.786 1451.59,894.786 1451.5,892.5 Z"/></g>
<g><path style="opacity:0.761" fill="#7b99b2" d="M 3464.5,884.5 C 3465.45,890.075 3465.79,895.741 3465.5,901.5C 3464.66,897.004 3463.99,892.337 3463.5,887.5C 3463.52,886.274 3463.85,885.274 3464.5,884.5 Z"/></g>
<g><path style="opacity:0.596" fill="#7b9bb5" d="M 3036.5,927.5 C 3035.94,931.376 3035.27,935.209 3034.5,939C 3035.58,943.066 3036.25,947.233 3036.5,951.5C 3033.58,944.089 3033.08,936.423 3035,928.5C 3035.38,927.944 3035.88,927.611 3036.5,927.5 Z"/></g>
<g><path style="opacity:0.556" fill="#87a2ba" d="M 2977.5,943.5 C 2976.28,952.172 2976.28,960.839 2977.5,969.5C 2975.98,965.44 2975.32,961.107 2975.5,956.5C 2975.32,951.893 2975.98,947.56 2977.5,943.5 Z"/></g>
<g><path style="opacity:0.839" fill="#94a6c1" d="M 3585.5,952.5 C 3583.5,956.5 3580.5,959.5 3576.5,961.5C 3579.17,958.167 3582.17,955.167 3585.5,952.5 Z"/></g>
<g><path style="opacity:0.658" fill="#88a1bd" d="M 3336.5,974.5 C 3343.82,975.682 3351.15,975.682 3358.5,974.5C 3354.61,976.007 3350.44,976.674 3346,976.5C 3343.17,976.333 3340.33,976.167 3337.5,976C 3336.94,975.617 3336.61,975.117 3336.5,974.5 Z"/></g>
<g><path style="opacity:0.812" fill="#728fae" d="M 3526.5,974.5 C 3531.5,974.5 3536.5,974.5 3541.5,974.5C 3541.39,975.117 3541.06,975.617 3540.5,976C 3536.17,976.667 3531.83,976.667 3527.5,976C 3526.94,975.617 3526.61,975.117 3526.5,974.5 Z"/></g>
<g><path style="opacity:0.596" fill="#648cbc" d="M 3431.5,981.5 C 3433.75,982.08 3435.42,983.413 3436.5,985.5C 3434.25,984.92 3432.58,983.587 3431.5,981.5 Z"/></g>
<g><path style="opacity:0.667" fill="#7b99b0" d="M 1812.5,980.5 C 1812.05,981.458 1811.38,982.292 1810.5,983C 1808.12,983.511 1805.79,984.178 1803.5,985C 1801.29,985.789 1799.29,985.622 1797.5,984.5C 1802.77,983.964 1807.77,982.63 1812.5,980.5 Z"/></g>
<g><path style="opacity:0.678" fill="#7c96b1" d="M 2543.5,981.5 C 2541.61,983.311 2539.28,984.478 2536.5,985C 2534.29,985.789 2532.29,985.622 2530.5,984.5C 2534.98,984.118 2539.31,983.118 2543.5,981.5 Z"/></g>
<g><path style="opacity:0.72" fill="#8aa3ba" d="M 1892.5,982.5 C 1897.06,983.796 1901.73,984.462 1906.5,984.5C 1901.59,985.969 1896.93,985.302 1892.5,982.5 Z"/></g>
<g><path style="opacity:0.755" fill="#809cb5" d="M 1648.5,985.5 C 1643.77,987.145 1638.77,987.811 1633.5,987.5C 1638.29,986.275 1643.29,985.608 1648.5,985.5 Z"/></g>
<g><path style="opacity:0.067" fill="#2d5b8c" d="M 1921.5,986.5 C 1921.5,986.167 1921.5,985.833 1921.5,985.5C 1922.82,988.258 1923.48,991.424 1923.5,995C 1923.5,998.352 1923.16,1001.52 1922.5,1004.5C 1922.82,998.31 1922.49,992.31 1921.5,986.5 Z"/></g>
<g><path style="opacity:0.667" fill="#8fa9bf" d="M 1596.5,985.5 C 1608.77,987.136 1621.1,987.803 1633.5,987.5C 1625.34,988.657 1617.01,988.823 1608.5,988C 1604.26,987.665 1600.26,986.832 1596.5,985.5 Z"/></g>
<g><path style="opacity:0.6" fill="#8aa3bb" d="M 2309.5,985.5 C 2319.09,987.089 2328.76,987.755 2338.5,987.5C 2332.35,988.653 2326.01,988.82 2319.5,988C 2315.87,987.851 2312.53,987.018 2309.5,985.5 Z"/></g>
<g><path style="opacity:0.667" fill="#677a9a" d="M 2401.5,997.5 C 2399.97,999.245 2397.97,1000.25 2395.5,1000.5C 2397.03,998.755 2399.03,997.755 2401.5,997.5 Z"/></g>
<g><path style="opacity:0.565" fill="#92aac0" d="M 1779.5,986.5 C 1779.5,992.167 1779.5,997.833 1779.5,1003.5C 1826.83,1003.5 1874.17,1003.5 1921.5,1003.5C 1921.5,997.833 1921.5,992.167 1921.5,986.5C 1922.49,992.31 1922.82,998.31 1922.5,1004.5C 1874.5,1004.5 1826.5,1004.5 1778.5,1004.5C 1778.18,998.31 1778.51,992.31 1779.5,986.5 Z"/></g>
<g><path style="opacity:0.565" fill="#92aac1" d="M 2003.5,985.5 C 1998.69,986.487 1993.69,986.821 1988.5,986.5C 1988.5,992.167 1988.5,997.833 1988.5,1003.5C 2035.83,1003.5 2083.17,1003.5 2130.5,1003.5C 2130.5,997.833 2130.5,992.167 2130.5,986.5C 2126.3,986.817 2122.3,986.483 2118.5,985.5C 2122.83,985.5 2127.17,985.5 2131.5,985.5C 2131.5,991.833 2131.5,998.167 2131.5,1004.5C 2083.5,1004.5 2035.5,1004.5 1987.5,1004.5C 1987.5,998.167 1987.5,991.833 1987.5,985.5C 1992.83,985.5 1998.17,985.5 2003.5,985.5 Z"/></g>
<g><path style="opacity:0.565" fill="#92aac1" d="M 2526.5,985.5 C 2523.71,986.477 2520.71,986.81 2517.5,986.5C 2517.5,992.167 2517.5,997.833 2517.5,1003.5C 2557.5,1003.5 2597.5,1003.5 2637.5,1003.5C 2637.5,997.833 2637.5,992.167 2637.5,986.5C 2633.63,986.815 2629.96,986.482 2626.5,985.5C 2630.5,985.5 2634.5,985.5 2638.5,985.5C 2638.5,991.833 2638.5,998.167 2638.5,1004.5C 2597.83,1004.5 2557.17,1004.5 2516.5,1004.5C 2516.5,998.167 2516.5,991.833 2516.5,985.5C 2519.83,985.5 2523.17,985.5 2526.5,985.5 Z"/></g>
<g><path style="opacity:0.565" fill="#91a9c0" d="M 2686.5,985.5 C 2682.7,986.483 2678.7,986.817 2674.5,986.5C 2674.5,992.167 2674.5,997.833 2674.5,1003.5C 2713.5,1003.5 2752.5,1003.5 2791.5,1003.5C 2791.5,997.833 2791.5,992.167 2791.5,986.5C 2788.61,986.806 2785.95,986.473 2783.5,985.5C 2786.5,985.5 2789.5,985.5 2792.5,985.5C 2792.5,991.833 2792.5,998.167 2792.5,1004.5C 2752.83,1004.5 2713.17,1004.5 2673.5,1004.5C 2673.5,998.167 2673.5,991.833 2673.5,985.5C 2677.83,985.5 2682.17,985.5 2686.5,985.5 Z"/></g>
<g><path style="opacity:0.565" fill="#90a8bf" d="M 2840.5,985.5 C 2836.37,986.485 2832.03,986.818 2827.5,986.5C 2827.5,992.167 2827.5,997.833 2827.5,1003.5C 2867.83,1003.5 2908.17,1003.5 2948.5,1003.5C 2948.5,997.833 2948.5,992.167 2948.5,986.5C 2944.96,986.813 2941.62,986.479 2938.5,985.5C 2942.17,985.5 2945.83,985.5 2949.5,985.5C 2949.5,991.833 2949.5,998.167 2949.5,1004.5C 2908.5,1004.5 2867.5,1004.5 2826.5,1004.5C 2826.5,998.167 2826.5,991.833 2826.5,985.5C 2831.17,985.5 2835.83,985.5 2840.5,985.5 Z"/></g>
<g><path style="opacity:0.669" fill="#7f9bb5" d="M 1573.5,1006.5 C 1578.71,1006.61 1583.71,1007.28 1588.5,1008.5C 1583.23,1008.81 1578.23,1008.14 1573.5,1006.5 Z"/></g>
<g><path style="opacity:0.788" fill="#84a0b7" d="M 3482.5,1006.5 C 3488.03,1006.67 3493.37,1007.34 3498.5,1008.5C 3492.89,1008.93 3487.55,1008.26 3482.5,1006.5 Z"/></g>
<g><path style="opacity:0.621" fill="#8aa4ba" d="M 3541.5,1006.5 C 3536.1,1008.21 3530.43,1008.87 3524.5,1008.5C 3529.97,1007.38 3535.64,1006.72 3541.5,1006.5 Z"/></g>
<g><path style="opacity:0.622" fill="#87a3ba" d="M 1590.5,1009.5 C 1606,1009.7 1621.67,1009.37 1637.5,1008.5C 1630.23,1010.02 1622.73,1010.68 1615,1010.5C 1606.82,1010.31 1598.66,1009.97 1590.5,1009.5 Z"/></g>
</svg>
